<svg width="32" height="32" viewBox="0 0 32 32" fill="none" xmlns="http://www.w3.org/2000/svg">
<mask id="mask0_95_2346" style="mask-type:alpha" maskUnits="userSpaceOnUse" x="0" y="0" width="32" height="32">
<rect width="32" height="32" fill="#D9D9D9"/>
</mask>
<g mask="url(#mask0_95_2346)">
<path d="M6.66683 25.3334C6.28905 25.3334 5.97216 25.2054 5.71616 24.9494C5.46105 24.6942 5.3335 24.3778 5.3335 24C5.3335 23.6222 5.46105 23.3058 5.71616 23.0507C5.97216 22.7947 6.28905 22.6667 6.66683 22.6667H8.00016V13.3334C8.00016 11.4889 8.55572 9.8498 9.66683 8.41602C10.7779 6.98313 12.2224 6.04446 14.0002 5.60002V4.66669C14.0002 4.11113 14.1948 3.63913 14.5842 3.25069C14.9726 2.86135 15.4446 2.66669 16.0002 2.66669C16.5557 2.66669 17.0277 2.86135 17.4162 3.25069C17.8055 3.63913 18.0002 4.11113 18.0002 4.66669V5.60002C19.7779 6.04446 21.2224 6.98313 22.3335 8.41602C23.4446 9.8498 24.0002 11.4889 24.0002 13.3334V22.6667H25.3335C25.7113 22.6667 26.0277 22.7947 26.2828 23.0507C26.5388 23.3058 26.6668 23.6222 26.6668 24C26.6668 24.3778 26.5388 24.6942 26.2828 24.9494C26.0277 25.2054 25.7113 25.3334 25.3335 25.3334H6.66683ZM16.0002 29.3334C15.2668 29.3334 14.6393 29.0725 14.1175 28.5507C13.5948 28.028 13.3335 27.4 13.3335 26.6667H18.6668C18.6668 27.4 18.4059 28.028 17.8842 28.5507C17.3615 29.0725 16.7335 29.3334 16.0002 29.3334Z" fill="white"/>
</g>
</svg>
